
<svg xmlns="http://www.w3.org/2000/svg" viewBox="0 0 900 900">
  <defs>
    <style>.cls-1{fill:#393a3a;}.cls-2{fill:#eee;}.cls-3{fill:#5f5f5f;}.cls-4{fill:#494949;}.cls-5{fill:#7c7c7c;}.cls-6{fill:#d2cfad;}.cls-7{fill:#fcfbec;}.cls-8{fill:#ecebd9;}.cls-16,.cls-9{fill:#fff;}.cls-9{opacity:0.6;}.cls-10{fill:#b6b6b6;}.cls-10,.cls-11,.cls-12{opacity:0.49;}.cls-11{fill:#ddd;}.cls-12{fill:#cbcbcb;}.cls-13{fill:#727171;}.cls-14{fill:#c6d880;}.cls-15{fill:#2a6eaa;}.cls-17{fill:#232323;}.cls-18{fill:#161616;}.cls-19{fill:#3477a5;}.cls-20{fill:#656665;}.cls-21{fill:#e8e8e9;}.cls-22{fill:#c5c5c6;}.cls-23,.cls-34,.cls-35{fill:#e0dda3;}.cls-24{fill:#e4b664;}.cls-25{fill:#c4c5c6;}.cls-26,.cls-33{fill:#8d8d8d;}.cls-27{fill:#fdfadc;}.cls-28{fill:#eae7c9;}.cls-29{fill:#d7d1a6;}.cls-30{fill:#e0e0df;}.cls-31{fill:#d0d0d0;}.cls-32{fill:#aeaeae;}.cls-33{opacity:0.67;}.cls-34{opacity:0.68;}.cls-35{opacity:0.9;}.cls-36{fill:#e2d18e;}.cls-37{fill:#f9e89f;}.cls-38{fill:#447588;}.cls-39{fill:#145872;}.cls-40{fill:#e9e9e9;}.cls-41{fill:#d7d7d8;}.cls-42{fill:#505050;}.cls-43{fill:#a2a2a3;}.cls-44{fill:#dbdbdb;}.cls-45{fill:#cdcdcd;}.cls-46{fill:#8c8c8c;}.cls-47{fill:#b3b3b3;}.cls-48{fill:#858585;}.cls-49{fill:#262827;}.cls-50{fill:#3e3f3f;}.cls-51{fill:#131313;}.cls-52{fill:#f9f9fa;}.cls-53{fill:#c7c7c7;}.cls-54{fill:#211815;}.cls-55{fill:#adadac;}.cls-56{fill:none;stroke:#fff;stroke-linecap:round;stroke-miterlimit:10;stroke-width:14.13px;}</style>
  </defs>
  <path class="cls-1" d="M205.72,361.38c-61.53,4.23-91.81,81.3-82.13,138.64,20.18,119.58,97,17.63,97,17.63S298,355,205.72,361.38ZM204,492.32c-18.27,29.34-16.37,37.85-16.37,37.85s-13.71,17.77-21.38,2.69c0,0-30.89-25.91-18.88-81,14.14-64.87,70.84-69.35,70.84-69.35s6.41,35.81,1.59,68.72L222,491.52Z"/>
  <path class="cls-2" d="M164.41,460.13c9.11-41.79,34.9-51.8,52.79-58.41l2.62,49.49c4.82-32.91-1.59-68.72-1.59-68.72s-56.7,4.48-70.84,69.35c-12,55.11,18.88,81,18.88,81,7.67,15.08,21.38-2.69,21.38-2.69s-1.9-8.51,16.37-37.85l-40.26,1.81C163.38,485.59,162.07,470.88,164.41,460.13Z"/>
  <path class="cls-3" d="M208,486q-2.16,3.3-4,6.3l17.93-.8-2.13-40.31C217.94,464,214.36,476.38,208,486Z"/>
  <polygon class="cls-2" points="168.89 431.18 232.08 452.76 230.08 469.48 162.71 451.43 168.89 431.18"/>
  <path class="cls-4" d="M774.55,591.07C712.15,507.15,573,420.94,418.4,420,263,419.13,76.79,493.65,73.89,612S240,833.88,424.11,838.4c115.09,2.82,227.27-9.17,295.84-58.26C761.1,750.69,820.09,652.33,774.55,591.07Z"/>
  <path class="cls-5" d="M720.36,763.45c-69.31,48-180.75,61.09-295.84,58.26C245.07,817.31,80,718.84,74.41,604.3q-.43,4.29-.55,8.67C71,731.3,239.94,834.86,424.09,839.38c115.08,2.83,227.27-9.17,295.84-58.26,36.58-26.18,103.61-132.5,56.36-178.8C772.8,650.05,768.52,730.08,720.36,763.45Z"/>
  <polygon class="cls-6" points="604.05 506.99 732.09 554.44 702.64 593.01 580.94 549.5 583.38 525.89 604.05 506.99"/>
  <polygon class="cls-7" points="702.64 593.01 687.52 679.2 567.57 641.7 580.94 549.5 702.64 593.01"/>
  <polygon class="cls-8" points="732.09 554.44 727.01 635.73 687.52 679.2 702.64 593.01 732.09 554.44"/>
  <path class="cls-9" d="M242.46,459.87,640.67,614l42.71-49.83,94.82,42.51,19.67-50.76c-46-99.51-201.69-176.31-337.72-186.91-72.88-5.68-153.78,4.8-220.21,29.77Z"/>
  <polygon class="cls-10" points="639.26 620.96 640.67 614.01 683.38 564.18 682.45 570.39 639.26 620.96"/>
  <polygon class="cls-11" points="640.67 614.01 569.07 586.29 567.68 592.61 639.26 620.96 640.67 614.01"/>
  <polygon class="cls-12" points="682.45 570.39 718.53 586.59 721.22 581.12 683.38 564.18 682.45 570.39"/>
  <path class="cls-13" d="M186,559.45l-2.54-63.52s-3-6,5.12-9l12-6s5-4.07,7.75-2.61S587.6,606.5,587.6,606.5s18.69,7.45,15.63,18.56-9.32,66.18-9.32,66.18l-17.29,21.24s-3.38,2.07-21.56-4.72C540.52,702.32,212,571.32,187.53,561.57A2.38,2.38,0,0,1,186,559.45Z"/>
  <path class="cls-14" d="M743.89,419.25s37.91,8.3,16.71,31.69c-14,15.47-56,48.3-68.45,64.62a15.14,15.14,0,0,1-16.5,5.31L388,407.53s-22-28.91-1-38.4l65.14-41.37a35.83,35.83,0,0,1,35.7-9.54Z"/>
  <path class="cls-15" d="M211,105.16,614.4,170.63c10.16,1.19,17.36,11,15.91,21.54L573.94,619.23,214,478.94l-16.4-354.35C197.11,113,200,103.86,211,105.16Z"/>
  <polygon class="cls-16" points="200.11 175.49 621.97 257.95 573.51 617.34 213.52 473.05 200.11 175.49"/>
  <polygon class="cls-17" points="203.98 182.88 614.08 264.49 572.55 591.77 546.05 581.99 544.52 600.76 216.58 468.93 215.5 444.53 203.98 182.88"/>
  <polygon class="cls-18" points="215.54 443.74 575.32 573.85 572.55 591.77 546.05 581.99 544.52 600.76 216.58 468.93 215.54 443.74"/>
  <path class="cls-19" d="M233.82,103l386.81,59.27s22.14,1.92,19.9,23.75-57.88,426.61-57.88,426.61l-8.71,6.59,56.63-428.77c1-7.65-5.16-18.64-16.17-19.83l-403.61-65.5-.69-.06c-.47,0-1,0-1.4,0l-.95,0a11.55,11.55,0,0,0-2.34.46,22.86,22.86,0,0,1,5.43-1.68C212.83,103.66,233.82,103,233.82,103Z"/>
  <polygon class="cls-5" points="276.7 675.35 276.09 656.3 341.48 682.48 341.69 703.04 276.7 675.35"/>
  <polygon class="cls-20" points="341.69 703.04 358.41 689.18 341.48 682.48 341.69 703.04"/>
  <polygon class="cls-16" points="323.44 760.88 318.74 771.86 357.42 779.63 362.05 768.34 323.44 760.88"/>
  <polygon class="cls-21" points="319.04 785.49 357.2 793.09 357.42 779.63 318.74 771.86 319.04 785.49"/>
  <polygon class="cls-22" points="362.05 768.34 361.48 781.78 357.2 793.09 357.42 779.63 362.05 768.34"/>
  <path class="cls-23" d="M348.37,789.34l-23.13-4.74a4.38,4.38,0,0,1-3.49-4.39h0A4.38,4.38,0,0,1,327,776l23.12,4.75a4.36,4.36,0,0,1,3.49,4.38h0A4.37,4.37,0,0,1,348.37,789.34Z"/>
  <polygon class="cls-24" points="337.83 783.85 335.76 783.44 335.83 780.81 337.9 781.22 337.83 783.85"/>
  <polygon class="cls-16" points="135.68 660.74 123.77 665.49 140.93 683.23 153.09 678.12 135.68 660.74"/>
  <polygon class="cls-21" points="142.25 695.57 154.29 689.92 153.09 678.12 140.93 683.23 142.25 695.57"/>
  <polygon class="cls-22" points="123.77 665.49 126 679.21 142.25 695.57 140.93 683.23 123.77 665.49"/>
  <path class="cls-23" d="M136.56,688.31l-7.37-7.4a9.38,9.38,0,0,1-2.65-5.33l-.16-1.12a1.49,1.49,0,0,1,2.55-1.24l7.54,7.85a9.44,9.44,0,0,1,2.57,5.5l.05.53A1.48,1.48,0,0,1,136.56,688.31Z"/>
  <polygon class="cls-24" points="132.68 681.58 131.45 680.36 131.49 678.74 132.72 679.97 132.68 681.58"/>
  <polygon class="cls-16" points="97.63 562.8 109.04 563.08 107.53 578.71 95 578.85 97.63 562.8"/>
  <polygon class="cls-21" points="95.56 592.19 108.11 591.7 107.53 578.71 95 578.85 95.56 592.19"/>
  <polygon class="cls-22" points="109.04 563.08 109.34 576.68 108.11 591.7 107.53 578.71 109.04 563.08"/>
  <polygon class="cls-16" points="108.26 617.79 120.89 645.66 144.56 640.35 130.22 612.6 108.26 617.79"/>
  <polygon class="cls-25" points="120.89 645.66 120.67 654.68 143.86 649.83 144.56 640.35 120.89 645.66"/>
  <polygon class="cls-26" points="108.26 617.79 108.28 626.69 120.67 654.68 120.89 645.66 108.26 617.79"/>
  <polygon class="cls-27" points="102.03 636.45 104.54 642.57 116.74 639.26 114.13 633.55 102.03 636.45"/>
  <polygon class="cls-28" points="104.54 642.57 104.24 645.58 116.14 642.46 116.74 639.26 104.54 642.57"/>
  <polygon class="cls-29" points="102.03 636.45 101.85 639.74 104.24 645.58 104.54 642.57 102.03 636.45"/>
  <polygon class="cls-16" points="549.86 770.95 555.81 782.15 593.31 776.84 586.95 765.64 549.86 770.95"/>
  <polygon class="cls-21" points="554.3 794.37 555.81 782.15 593.31 776.84 591.39 789.45 554.3 794.37"/>
  <polygon class="cls-22" points="549.86 770.95 548.63 784.05 554.3 794.37 555.81 782.15 549.86 770.95"/>
  <path class="cls-23" d="M585,788.42l-24,3.24a2.4,2.4,0,0,1-2.69-2.71l.14-1a5.29,5.29,0,0,1,4.53-4.51L587,780.21a2.4,2.4,0,0,1,2.69,2.74l-.17,1A5.28,5.28,0,0,1,585,788.42Z"/>
  <polygon class="cls-24" points="575.05 787.28 572.92 787.53 573.18 784.72 575.31 784.39 575.05 787.28"/>
  <polygon class="cls-30" points="191.62 692.04 231.07 710.34 218.76 722.81 178.13 702.61 191.62 692.04"/>
  <polygon class="cls-31" points="231.07 710.34 229.89 730.12 217.86 742.78 218.76 722.81 231.07 710.34"/>
  <polygon class="cls-32" points="178.13 702.61 178.5 722.76 217.86 742.78 218.76 722.81 178.13 702.61"/>
  <path class="cls-1" d="M210,738s-6.38,6.48-13.62,4.07-9.74-6-11.1-9.6-.34-9.35-.34-9.35.26-6.26,7.66-8.65S208,724.23,208,724.23,212.87,733.72,210,738Z"/>
  <polygon class="cls-16" points="410 762.22 408.2 781.38 474.82 784.35 475.03 765.15 410 762.22"/>
  <polygon class="cls-33" points="408.2 781.38 408.44 792.99 473.47 796.19 474.82 784.35 408.2 781.38"/>
  <polygon class="cls-27" points="443.2 785.57 457.04 786.22 456.71 797.99 442.09 797.4 443.2 785.57"/>
  <polygon class="cls-30" points="231.74 731.8 254.27 742.85 247.4 748.38 224.57 737.09 231.74 731.8"/>
  <polygon class="cls-31" points="247.23 756.98 247.4 748.38 254.27 742.85 253.39 752.41 247.23 756.98"/>
  <polygon class="cls-16" points="224.57 737.09 223.83 745.23 247.23 756.98 247.4 748.38 224.57 737.09"/>
  <path class="cls-34" d="M229.3,744.43s-9.87,3.86-2.36,8.67c8.21,5.26,13.69-3.22,13.69-3.22Z"/>
  <path class="cls-35" d="M224.3,749.58a13.94,13.94,0,0,0-.17,2.41c.21,1.07.73,2,2.87,3.35,6.77,4.46,13.22-3.05,13.22-3.05l.41-2.41s-5.47,8.5-13.69,3.22C224.25,751.37,224.3,749.58,224.3,749.58Z"/>
  <polygon class="cls-36" points="694.58 665.38 697.71 635.82 756.07 655.72 747.39 682.74 694.58 665.38"/>
  <polygon class="cls-37" points="697.71 635.82 711.77 617.96 763.18 634.72 756.07 655.72 697.71 635.82"/>
  <polygon class="cls-38" points="182.12 619.01 179.45 458.91 189.24 450.96 495.83 560.99 489.9 732.4 481.87 738.67 182.12 619.01"/>
  <polygon class="cls-39" points="182.12 619.01 179.45 458.91 486.04 568.94 481.87 738.67 182.12 619.01"/>
  <path class="cls-40" d="M274.26,555.69c-7.61-27.81-30.82-45.7-51.84-40L182,526.22c20.42-4,42.29,13.62,49.62,40.46,6.91,25.27-1.43,50-18.77,58.66L250,616.46C271,610.71,281.86,583.5,274.26,555.69Z"/>
  <ellipse class="cls-41" cx="193.6" cy="577.09" rx="39.46" ry="52.21" transform="translate(-145.34 71.49) rotate(-15.29)"/>
  <path class="cls-40" d="M433.93,616.72c-7.61-27.82-30.81-45.71-51.83-40l-40.39,10.48c20.42-4,42.29,13.63,49.63,40.47,6.91,25.26-1.44,50-18.78,58.66l37.07-8.88C430.66,671.74,441.53,644.53,433.93,616.72Z"/>
  <ellipse class="cls-41" cx="353.27" cy="638.1" rx="39.46" ry="52.21" transform="translate(-155.77 115.76) rotate(-15.29)"/>
  <path class="cls-42" d="M383.09,628.84c6.26,22.91-2,48.07-19.33,52.8s-37.1-12.75-43.37-35.66,2.7-45.31,20-50.05S376.83,605.93,383.09,628.84Z"/>
  <path class="cls-42" d="M223.32,568c6.26,22.91-2,48.07-19.33,52.8S166.88,608,160.62,585.1s2.69-45.31,20-50.05S217.05,545.05,223.32,568Z"/>
  <path class="cls-43" d="M343,555.51l-43.1-16.3a14.25,14.25,0,0,1-9.2-13.68L285,523.1c.26-1.2,7.29-5.19,9.27-6.55a7.78,7.78,0,0,1,7.21-.86l43.1,16.3a14.24,14.24,0,0,1,9.21,13.68l-.07,2.69a7.78,7.78,0,0,1-3.36,6.25c-1,.67-8.18,5.6-9.36,5.79S344.38,556,343,555.51Z"/>
  <path class="cls-44" d="M335.44,560.4l-43.1-16.3a14.25,14.25,0,0,1-9.2-13.68l.06-2.69a7.85,7.85,0,0,1,10.63-7.15l43.1,16.3a14.27,14.27,0,0,1,9.21,13.68l-.07,2.69A7.85,7.85,0,0,1,335.44,560.4Z"/>
  <polygon class="cls-36" points="718.89 727.11 729.56 732.62 788.01 680.54 788.01 602.67 777.34 597.16 718.89 649.24 718.89 727.11"/>
  <polygon class="cls-37" points="729.56 732.62 788.01 680.54 788.01 602.67 729.56 654.75 729.56 732.62"/>
  <path class="cls-1" d="M675.5,807.81C729.43,831,800.58,786,834.42,707.35S852,546.09,798,522.9,672.94,544.68,639.11,623.36,621.56,784.61,675.5,807.81ZM815.11,596.08l-62.2,71.48-58.25-26.64c22.16-50.26,66.25-80,98.2-66.27C802.09,578.62,809.71,586,815.11,596.08ZM765.71,758.6l-9.83-85.88,64.38-67c10.65,24.39,8.54,59.53-5.55,92.29C803.42,724.27,785.6,746.29,765.71,758.6ZM695.57,644.9l58,20.48,5.08,96c-17,10.06-34.17,12.24-48.33,6.15C678,753.7,673.66,695.87,695.57,644.9Z"/>
  <path class="cls-2" d="M703.27,785C743,802.12,797.11,765.1,824.1,702.34S840.75,574.84,801,557.75s-93.84,19.93-120.83,82.69S663.52,767.94,703.27,785Zm98.67-187.55-47.57,53.8-41-18.74c10.21-32.61,45.13-58.7,70.22-50.31C789.75,584.3,798.42,590.88,801.94,597.48ZM765.6,743.37,764,668.24l48.64-52.19c7.1,18.13,3.35,54.43-7.86,78C795.75,712.9,780.49,734.94,765.6,743.37ZM704,652.76l46.43,17.48.66,81.8c-12.85,6.89-27.17,11-37.43,6.11C690.27,746.92,678.48,689.18,704,652.76Z"/>
  <path class="cls-45" d="M808.07,620.65s6.48,26.63-3.21,57.88c-6.76,21.8-20.21,45.68-39.32,59.12l.06,5.72s27.48-15.46,42-56.15c15.71-44.05,5-71.17,5-71.17Z"/>
  <path class="cls-45" d="M799.55,593.89l-49.79,55.19,4.61,2.2,47.57-53.8A22.48,22.48,0,0,0,799.55,593.89Z"/>
  <path class="cls-45" d="M750.4,670.24l-5.61-2.12.27,86.86c2-.77,6-2.94,6-2.94Z"/>
  <polygon class="cls-46" points="359.99 129.85 348.74 137.12 347.48 209.03 416.37 221.73 426.5 214.55 430.48 140.53 359.99 129.85"/>
  <polygon class="cls-47" points="348.74 137.12 347.48 209.03 416.37 221.73 420.88 148.59 348.74 137.12"/>
  <path class="cls-48" d="M411,184.22a30,30,0,0,0-1.81-15.69l3.68-2.7-8.13-11.38L401.05,157a30.13,30.13,0,0,0-13.21-6.75c-5.42-1.43-13.82-.76-19.23,2.56l-1.91-3.18-11.18,8.2,2.62,3.54c-3.32,4-4.49,7.19-5.34,12.74s.59,11.36,2.55,16.22l-3.51,2.47L360,204.3l3.44-2.53a29.09,29.09,0,0,0,14.32,6.79,28.37,28.37,0,0,0,15.73-1.79l2.68,3.62,11.1-8.14-2.67-3.74A29.38,29.38,0,0,0,411,184.22Z"/>
  <ellipse class="cls-49" cx="382.37" cy="179.4" rx="26.8" ry="27.35" transform="translate(-35.08 115.14) rotate(-16.38)"/>
  <ellipse class="cls-50" cx="382.37" cy="179.4" rx="22.55" ry="23.02" transform="translate(-35.08 115.14) rotate(-16.38)"/>
  <ellipse class="cls-51" cx="382.37" cy="179.4" rx="19.21" ry="19.61" transform="translate(-35.08 115.14) rotate(-16.38)"/>
  <ellipse class="cls-52" cx="373.89" cy="186.14" rx="4.83" ry="6.99" transform="translate(-34.47 273.76) rotate(-38.58)"/>
  <ellipse class="cls-52" cx="372.04" cy="173.86" rx="3.37" ry="3.54" transform="translate(-24.73 279.75) rotate(-39.99)"/>
  <path class="cls-53" d="M255.35,136.74v40.07a.94.94,0,0,0,.79.93l26.6,4.54a1.41,1.41,0,0,0,1.65-1.39V140.18a1,1,0,0,0-.81-.94L257,135.35A1.4,1.4,0,0,0,255.35,136.74Z"/>
  <ellipse class="cls-54" cx="268.59" cy="147.85" rx="2.88" ry="3.74" transform="translate(-10.22 20.32) rotate(-4.25)"/>
  <polygon class="cls-55" points="284.35 144.53 287.28 144.88 287.28 149.02 284.39 148.7 284.35 144.53"/>
  <polygon class="cls-55" points="284.35 153.52 287.28 153.87 287.28 158 284.39 157.68 284.35 153.52"/>
  <polygon class="cls-55" points="284.35 162.5 287.28 162.85 287.28 166.99 284.39 166.67 284.35 162.5"/>
  <polygon class="cls-55" points="284.35 171.49 287.28 171.84 287.28 175.98 284.39 175.66 284.35 171.49"/>
  <polygon class="cls-55" points="252.38 141.17 255.31 141.52 255.31 145.66 252.43 145.34 252.38 141.17"/>
  <polygon class="cls-55" points="252.38 150.16 255.31 150.51 255.31 154.65 252.43 154.33 252.38 150.16"/>
  <polygon class="cls-55" points="252.38 159.15 255.31 159.5 255.31 163.64 252.43 163.32 252.38 159.15"/>
  <polygon class="cls-55" points="252.38 168.14 255.31 168.49 255.31 172.63 252.43 172.31 252.38 168.14"/>
  <path class="cls-16" d="M269.27,128.85l.23,3.05c.05.58-.22.85-.78.79a1,1,0,0,1-.91-1l-.23-3.06c-.05-.56-.31-.91-.72-1s-.67.19-.82.69l.24,3.17c.05.58-.22.85-.77.79a1,1,0,0,1-.92-1l-.23-3c-.05-.58-.32-.92-.72-1s-.73.33-.85.9l.23,2.91c.05.6-.23.87-.79.82a1,1,0,0,1-.93-1l-.33-4.22c-.05-.57.24-.85.76-.8a.9.9,0,0,1,.86.91V127a1.28,1.28,0,0,1,1.45-.8,2.06,2.06,0,0,1,1.61,1,1.48,1.48,0,0,1,1.5-.67A2.28,2.28,0,0,1,269.27,128.85Zm-6.51-.15a.2.2,0,0,0,0,.11Z"/>
  <path class="cls-16" d="M270.28,125.17a.83.83,0,0,1,.94-1,1.21,1.21,0,0,1,1.06,1.16.8.8,0,0,1-.9,1A1.3,1.3,0,0,1,270.28,125.17ZM271,132l-.32-4.1c0-.6.23-.87.79-.82a1,1,0,0,1,.93,1l.32,4.1c.05.6-.22.87-.79.82A1,1,0,0,1,271,132Z"/>
  <path class="cls-16" d="M273.63,130.26c-.14-1.87.83-2.95,2.53-2.78a2.77,2.77,0,0,1,1.91,1,.58.58,0,0,1,0,.79.52.52,0,0,1-.79-.06,1.45,1.45,0,0,0-.92-.42c-.75-.08-1.14.47-1,1.58s.56,1.8,1.34,1.88a1.16,1.16,0,0,0,.92-.22.51.51,0,0,1,.75.1.63.63,0,0,1,.09.85,2,2,0,0,1-1.83.54A3.25,3.25,0,0,1,273.63,130.26Z"/>
  <polygon class="cls-16" points="517.7 198.85 517.7 198.85 507.41 170.47 507.13 170.42 506.25 170.26 503.68 169.82 500.58 176.77 500.58 176.77 500.28 177.45 500.27 177.47 500.27 177.47 492.98 193.83 482.96 166.2 472.63 164.4 487.5 205.42 487.79 205.47 488.14 205.53 491.23 206.07 494.64 198.42 494.64 198.42 501.93 182.06 511.95 209.69 512.24 209.74 512.81 209.84 515.68 210.34 519.09 202.69 517.7 198.85"/>
  <polygon class="cls-16" points="531.86 174.74 531.57 174.69 530.77 174.54 528.13 174.08 524.72 181.74 524.72 181.74 517.43 198.09 519.09 202.69 526.38 186.33 536.4 213.96 546.73 215.76 531.86 174.74"/>
  <polygon class="cls-16" points="521.23 211.31 530.85 212.99 526.21 199.63 521.23 211.31"/>
  <path class="cls-16" d="M472,208.42l2.57.44.84,6.26,1.43-5.86,2.55.44L480.7,216l1-5.93,2.55.45-2.07,10.55-2.64-.46-1.44-7.12-1.62,6.59-2.64-.47Z"/>
  <path class="cls-16" d="M485.13,210.7l7.22,1.26,0,2.33-4.52-.79,0,1.73L492,216l0,2.22-4.19-.73,0,2.15,4.65.81,0,2.46L485,221.59Z"/>
  <path class="cls-16" d="M493.94,212.24l5.05.88a2.94,2.94,0,0,1,1.93,1.12,3.3,3.3,0,0,1,.65,2,2.48,2.48,0,0,1-.51,1.57,1.68,1.68,0,0,1-.95.56,3,3,0,0,1,1.37,1.21,3.51,3.51,0,0,1,.42,1.81,3.25,3.25,0,0,1-.33,1.47,1.83,1.83,0,0,1-1.91,1.09,7.62,7.62,0,0,1-1.21-.06l-4.65-.81ZM496.6,217l1.18.21a1.06,1.06,0,0,0,.88-.12,1,1,0,0,0,.26-.74,1.26,1.26,0,0,0-.24-.79,1.36,1.36,0,0,0-.86-.41l-1.19-.21Zm-.05,4.28,1.37.24a1.19,1.19,0,0,0,1-.13,1.07,1.07,0,0,0,.3-.78,1.26,1.26,0,0,0-.28-.83,1.53,1.53,0,0,0-1-.46l-1.37-.24Z"/>
  <path class="cls-16" d="M503.45,213.9l4,.7a4.63,4.63,0,0,1,1.91.73,4.24,4.24,0,0,1,1.19,1.36,6.19,6.19,0,0,1,.66,1.87,10.12,10.12,0,0,1,.19,2.15,8.63,8.63,0,0,1-.35,2.65,3.79,3.79,0,0,1-.91,1.46,2.25,2.25,0,0,1-1.23.65,4.86,4.86,0,0,1-1.61,0l-4-.7Zm2.67,2.94-.08,5.95.66.11a2.19,2.19,0,0,0,1.2,0,1.27,1.27,0,0,0,.57-.72,6,6,0,0,0,.23-1.86,4.73,4.73,0,0,0-.42-2.45,2.11,2.11,0,0,0-1.49-.9Z"/>
  <path class="cls-16" d="M518.58,216.54l2.69.47-.09,6.49a6.71,6.71,0,0,1-.26,1.78,3.38,3.38,0,0,1-.78,1.36,2.47,2.47,0,0,1-1.09.72,4.23,4.23,0,0,1-1.89,0,9.75,9.75,0,0,1-1.39-.35,3.76,3.76,0,0,1-1.26-.66,4.64,4.64,0,0,1-.91-1.1,4.72,4.72,0,0,1-.56-1.36,8.7,8.7,0,0,1-.22-1.88l.09-6.49,2.69.47-.09,6.64a2.51,2.51,0,0,0,.37,1.46,1.65,1.65,0,0,0,1.1.7,1.12,1.12,0,0,0,1.09-.31,1.9,1.9,0,0,0,.42-1.33Z"/>
  <path class="cls-16" d="M523.16,217.34l2.7.47-.14,10.89-2.7-.47Z"/>
  <path class="cls-16" d="M527.82,218.15l2.51.44,3.21,6.6.08-6,2.54.45L536,230.5l-2.54-.44-3.18-6.55-.08,6-2.54-.44Z"/>
  <path class="cls-16" d="M537.54,225.31a5.65,5.65,0,0,1,1.25-3.94,3.48,3.48,0,0,1,3.33-.91,4.94,4.94,0,0,1,3.34,2,7.15,7.15,0,0,1,1.12,4.29,7.49,7.49,0,0,1-.55,3,3.43,3.43,0,0,1-1.52,1.64,3.76,3.76,0,0,1-2.43.25,5.36,5.36,0,0,1-2.44-1,5.2,5.2,0,0,1-1.54-2.13A8,8,0,0,1,537.54,225.31Zm2.7.49a4.76,4.76,0,0,0,.46,2.46,1.89,1.89,0,0,0,1.32,1,1.33,1.33,0,0,0,1.36-.47,4.45,4.45,0,0,0,.51-2.45,4.53,4.53,0,0,0-.47-2.34,1.91,1.91,0,0,0-1.34-.94,1.29,1.29,0,0,0-1.32.49A4,4,0,0,0,540.24,225.8Z"/>
  <path class="cls-16" d="M539.09,183.21l.1-7.05,1.23.21-.09,7Z"/>
  <path class="cls-16" d="M541.3,180.1a4.59,4.59,0,0,1,.31-1.76,2.72,2.72,0,0,1,.58-.86,1.86,1.86,0,0,1,.8-.5,2.74,2.74,0,0,1,1.32,0,3.3,3.3,0,0,1,2.16,1.35,4.57,4.57,0,0,1,.77,2.83,3.5,3.5,0,0,1-.84,2.53,2.33,2.33,0,0,1-2.17.58,3.26,3.26,0,0,1-2.16-1.33A4.66,4.66,0,0,1,541.3,180.1Zm1.28.18a3.35,3.35,0,0,0,.45,1.9,1.86,1.86,0,0,0,1.21.83,1.29,1.29,0,0,0,1.23-.4,2.66,2.66,0,0,0,.49-1.76,3.31,3.31,0,0,0-.43-1.89,1.82,1.82,0,0,0-1.22-.81,1.27,1.27,0,0,0-1.24.39A2.6,2.6,0,0,0,542.58,180.28Z"/>
  <circle class="cls-16" cx="495.86" cy="376.89" r="44.36"/>
  <circle class="cls-16" cx="297.57" cy="338.3" r="44.36"/>
  <path class="cls-16" d="M274.39,277.09a12,12,0,0,1-4.18-22.17l1.11-.64a60.6,60.6,0,0,1,69,5.56l.14.12A12,12,0,0,1,325,278.26,36.57,36.57,0,0,0,283.42,275l-1.11.65A12,12,0,0,1,274.39,277.09Z"/>
  <path class="cls-16" d="M479.26,319.55a12,12,0,0,1-2.36-22.43l1.16-.55a60.61,60.61,0,0,1,68.32,11.15l.13.14a12,12,0,0,1-16.89,17,36.58,36.58,0,0,0-41.19-6.69l-1.15.56A11.89,11.89,0,0,1,479.26,319.55Z"/>
  <path class="cls-17" d="M325.49,348.14C318.9,362,298.24,369.09,283.28,362s-18.53-25.68-11.94-39.56,24.06-19.38,39-12.27S332.08,334.26,325.49,348.14Z"/>
  <path class="cls-17" d="M523.51,386.51c-6.59,13.88-25.84,23.56-40.79,16.46s-19.94-28.3-13.35-42.18,24.05-19.37,39-12.27S530.11,372.63,523.51,386.51Z"/>
  <path class="cls-56" d="M327,433.63c-1.58,7.72-2.28,19.89,24.16,28.53,7.27,2.38,35.63,9.13,35.63,9.13,23.83,6.76,33.24-5.9,34.51-18.3l.09-.84"/>
</svg>