<svg viewBox="0 0 249.6 251.4">
            <path style="fill:#168DD4;" d="M35.6,49.6c0,0,11.4,9.7,17.4,0.4c6-9.2-14.9-12.5-14.9-12.5s14.2-3.5,8.5-11.3
         c-6.5-8.8-14.7,0.8-14.7,0.8s-3.3-6.4-11.4,0c-9.2,7.2,2.8,14.9,2.8,14.9S6.3,85.6,10.5,111c3.2,19.4,12.3,53.7,43.6,69.7L49,164.2
         C49,164.2-2.1,125.2,35.6,49.6z"></path>
            <path style="fill:#168DD4;" d="M197,12.6c0,0,4.9-10.7-4.2-12.4c-9-1.8-6.2,12.4-6.2,12.4s-2.1-11.3-11.9-7.2
         c-9.8,4.2,5.1,14,5.1,14s-18.5,2.7-8.5,11.7c8.5,7.6,18,0,18,0s40.6,18.2,43,69.9c1.8,39.6-34,67.7-34,67.7l-1.5,14.8
         c0,0,44.6-25.5,47.3-82.4C246.9,44.1,197,12.6,197,12.6z"></path>
            <g>
              <path style="fill:#168DD4;" d="M182.8,221c0,0,37.4-66.6,9-120.6C163.4,46.3,58.1,51.1,48.2,138.5c-7.6,67.2,42.4,92.9,42.4,92.9
           s-14,6.2-9.7,15.3c4.3,9,18.4-4.3,18.4-4.3s9,21.6,28.6-2c0,0,17.5,22.9,31.4-5.5c0,0,34.5,27,43.2,2.1
           C211.2,212,191.1,241.8,182.8,221z"></path>
              <path style="fill:#1581B7;" d="M182.8,87.2c0,0,23.2,79.8-15.6,122.7c0,0,4.8,35.2,27.8,18.8c0,0-11.4,2-11.7-8.4
           C183.2,220.2,225.8,142.3,182.8,87.2z"></path>
              <path style="fill:#227A96;" d="M182.1,139.5c0,2.9-4.9,3.6-7.4,3.6c-2.5,0-4.6-2.3-4.6-5.2c0-2.9,2.1-5.2,4.6-5.2
           C177.2,132.6,182.1,136.6,182.1,139.5z"></path>
              <path style="fill:#227A96;" d="M194.2,130.5c0,4-1.9,7.2-4.2,7.2c-2.3,0-7.9-3.6-7.9-7.5c0-4,5.5-6.8,7.9-6.8
           C192.3,123.4,194.2,126.6,194.2,130.5z"></path>
              <path style="fill:#227A96;" d="M194.9,150.4c0,2.8-2.1,2.9-4.7,2.9c-2.6,0-4.7-0.1-4.7-2.9c0-2.8,2.1-5.2,4.7-5.2
           C192.8,145.2,194.9,147.5,194.9,150.4z"></path>
              <path style="fill:none;stroke:#46ADE0;stroke-width:5;stroke-linecap:round;stroke-miterlimit:10;" d="M56.9,139.5
           c0,0-1-37.4,35.9-58.9"></path>

              <line style="fill:none;stroke:#46ADE0;stroke-width:5;stroke-linecap:round;stroke-miterlimit:10;" x1="53.9" y1="147.3" x2="53.9" y2="150.3"></line>
            </g>
            <g>
              <g>
                <path style="fill:#1B709B;" d="M166,122.4c-0.7,19.1-18.8,10.2-42.3,9.3c-23.5-0.9-38.2,4.3-37.5-14.7
             C87,98,106.6,83.3,130.1,84.2C153.6,85,166.7,103.4,166,122.4z"></path>
                <path style="fill:#FFFFFF;" d="M164.3,117.2c-0.7,19.1-16.5,7.8-40,6.9c-23.5-0.9-40.4,6.7-39.7-12.3
             c0.7-19.1,20.3-33.8,43.8-32.9C151.9,79.8,165,98.2,164.3,117.2z"></path>
                <g>
                  <path style="fill:#424141;" d="M134.3,89c5.5,3.6,7,11,3.4,16.4c-3.6,5.5-11,7-16.4,3.4c-5.5-3.6-7-11-3.4-16.4
               C121.5,87,128.9,85.4,134.3,89z"></path>
                  <path style="fill:#FFFFFF;" d="M124.1,90.6c0.7,0.4,0.9,1.3,0.4,2c-0.4,0.7-1.3,0.9-2,0.4c-0.7-0.4-0.9-1.3-0.4-2
               C122.6,90.4,123.5,90.2,124.1,90.6z"></path>
                </g>
              </g>
              <g>
                <path style="fill:#BA5A73;" d="M171.5,190.8c7-6.3,11-14.9,11.8-22c1.2-9.9-4.5-19.6-14.6-27.3c0,0.1,0,0.2,0,0.2
             c-3.2,14.1-22.2,24.4-46.6,21.4c-22-2.7-39.2-14.9-41.9-27.2c-7.2,4.9-11.9,11.3-12.8,18.7c-2.4,19.3,19.8,46.8,51.8,50.7
             c7.3,0.9,14.5,0.5,21.3-0.9l4.2-1.6c0,0,2.7,5.3,3.3,9.3c0.9,5.8,6.6,6.6,7.2-2.4c0.4-7,3.2-3.4,4.8,2.3c0.8,2.8,2,6.3,3.2,7.2
             c2.4,1.9,12.3-4.6,8.8-24.4"></path>
                <path style="fill:#FFFFFF;" d="M85.6,146.4c0,0-8,12.9-5,16.1c3,3.2,5.3-2.6,5.3-2.6s-0.6,3.1-0.1,4c0.4,0.8,2.6,1.6,3.1-2
             c0,0,44.6,19.7,67.2,3.6c0,0,0.4,1.4,1.7,3.6c1.3,2.2,3.9,4,4.2-1.6c0,0,1.3-4,3.2,0.4s8.6,0.9,3.5-6.8c-5.1-7.7-5.8-9.5-5.8-9.5
             S130.1,181.7,85.6,146.4z"></path>
                <path style="fill:#E27194;" d="M163.2,219.2c2.4,1.9,12.3-4.6,8.8-24.4l-0.5-4c-1.8-1.1-3.8-1.8-5.9-3
             c-43.4-24-79.6-15.2-92.2-10.8c8.6,13.5,25.1,25.8,45.6,28.3c7.3,0.9,14.5,0.5,21.3-0.9l4.2-1.2c0,0,2.7,4.9,3.4,8.9
             c0.9,5.8,6.6,6.6,7.2-2.4c0.4-7,3.2-3.4,4.8,2.3C160.8,214.7,162.1,218.2,163.2,219.2z"></path>
              </g>
            </g>
          </svg>