<svg viewBox="0 0 47.9 46.6" style="width:80%; fill:#fff; display:block; margin:10% auto;">
            <path d="M36.7,8l8.9,21.8h-6l-6-14.7l-4.1,10l-1.9,4.7h-1.7h-0.3h-0.2l-6-14.7l-4.1,10l-1.9,4.7h-1.8h-0.2h-0.2L2.3,8h6l6,14.7
          l4.1-10l0,0l0.2-0.4L20.3,8h1.5h0.5h0.2l6.1,15l-0.1-0.3l4.1-10v0L34.5,8H36h0.5H36.7z M33.6,22.7l-2.8,7.1h5.6L33.6,22.7z
            M7.4,36.4L6.6,33H5.1l-0.8,3.5L3.8,33H2.3l1.1,6.2H5l0.9-3.9l0.9,3.9h1.5L9.4,33H7.9L7.4,36.4z M11.5,36.6h2.4v-1.3h-2.4v-1h2.6
          V33H9.9v6.2h4.3v-1.4h-2.7V36.6z M19.4,36.4c0.2,0.3,0.3,0.6,0.3,1c0,0.3-0.1,0.6-0.2,0.9c-0.1,0.3-0.3,0.5-0.5,0.6
          c-0.1,0.1-0.3,0.2-0.6,0.2c-0.4,0.1-0.6,0.1-0.7,0.1H15V33h2.9c0.5,0,0.9,0.1,1.1,0.4c0.3,0.3,0.4,0.7,0.4,1.1
          c0,0.4-0.1,0.7-0.3,0.9c-0.1,0.2-0.3,0.3-0.5,0.4C19,36,19.3,36.2,19.4,36.4z M16.6,35.4h0.7c0.2,0,0.4-0.1,0.5-0.2
          c0.1-0.1,0.1-0.3,0.1-0.4c0-0.2,0-0.3-0.1-0.4c-0.1-0.1-0.3-0.2-0.5-0.2h-0.7V35.4z M18.1,37.2c0-0.2-0.1-0.3-0.2-0.4
          c-0.1-0.1-0.3-0.2-0.6-0.2h-0.8v1.3h0.8c0.3,0,0.5-0.1,0.6-0.2C18.1,37.6,18.1,37.4,18.1,37.2z M25.1,34.9c0.1,0.4,0.1,0.8,0.1,1.2
          c0,0.7-0.1,1.2-0.2,1.5c-0.1,0.4-0.3,0.7-0.5,0.9c-0.2,0.2-0.5,0.4-0.7,0.5c-0.3,0.1-0.7,0.2-0.9,0.2h-2.3V33h2.3
          c0.5,0,0.8,0.1,1.1,0.2c0.3,0.2,0.5,0.4,0.7,0.7C24.8,34.2,25,34.5,25.1,34.9z M23.6,36.1c0-0.7-0.1-1.1-0.3-1.3
          c-0.2-0.2-0.5-0.4-0.9-0.4h-0.4v3.4h0.4c0.3,0,0.6,0,0.7-0.1c0.1-0.1,0.2-0.2,0.3-0.5C23.6,37,23.6,36.6,23.6,36.1z M29.3,36.8
          c0,0.3-0.1,0.6-0.2,0.8c-0.2,0.2-0.4,0.3-0.6,0.3c-0.3,0-0.5-0.1-0.6-0.3c-0.2-0.2-0.2-0.5-0.2-0.8V33H26v3.7c0,0.3,0,0.7,0.1,1
          c0.1,0.2,0.2,0.5,0.3,0.7c0.2,0.2,0.3,0.4,0.5,0.5c0.2,0.1,0.4,0.2,0.7,0.3c0.3,0,0.6,0.1,0.8,0.1c0.4,0,0.8-0.1,1.1-0.2
          c0.2-0.1,0.4-0.3,0.6-0.5c0.2-0.2,0.3-0.5,0.4-0.9c0.1-0.3,0.1-0.7,0.1-1V33h-1.6V36.8z M32,39.2h1.6V33H32V39.2z M38,36.4L36.1,33
          h-1.5v6.2h1.5v-3.4l1.9,3.4h1.5V33H38V36.4z M44.9,33.7c0.5,0.6,0.7,1.3,0.7,2.3c0,0.7-0.1,1.3-0.3,1.8c-0.2,0.5-0.5,0.8-0.9,1.1
          c-0.4,0.3-0.8,0.4-1.4,0.4c-0.6,0-1-0.1-1.4-0.3c-0.4-0.2-0.7-0.6-0.9-1.1c-0.2-0.5-0.3-1.1-0.3-1.8c0-1,0.2-1.8,0.7-2.4
          c0.5-0.6,1.1-0.8,1.9-0.8C43.8,32.9,44.5,33.2,44.9,33.7z M44,36c0-0.6-0.1-1-0.3-1.3c-0.2-0.3-0.5-0.4-0.8-0.4
          c-0.3,0-0.6,0.1-0.8,0.4c-0.2,0.3-0.3,0.7-0.3,1.4c0,0.6,0.1,1.1,0.3,1.3c0.2,0.3,0.4,0.4,0.8,0.4c0.3,0,0.6-0.1,0.8-0.4
          C43.9,37.2,44,36.7,44,36z M41.6,8.1h-0.7v4h0.7V8.1z M42.6,11.6c-0.3-0.4-0.5-0.9-0.5-1.5c0-0.4,0.1-0.7,0.2-1
          c0.1-0.2,0.2-0.4,0.3-0.5c0.1-0.2,0.3-0.3,0.5-0.4C43.3,8.1,43.6,8,43.9,8c0.5,0,0.9,0.2,1.3,0.5c0.3,0.4,0.5,0.9,0.5,1.5
          c0,0.6-0.2,1.2-0.5,1.5c-0.3,0.4-0.7,0.5-1.3,0.5C43.4,12.2,42.9,12,42.6,11.6z M42.9,10.1c0,0.5,0.1,0.8,0.3,1
          c0.2,0.2,0.4,0.4,0.7,0.4c0.3,0,0.5-0.1,0.7-0.3c0.2-0.2,0.3-0.6,0.3-1c0-0.5-0.1-0.8-0.3-1c-0.2-0.2-0.4-0.3-0.7-0.3
          c-0.3,0-0.5,0.1-0.7,0.3C43,9.3,42.9,9.6,42.9,10.1z"></path>
          </svg>