<svg viewBox="0 0 249.6 251.4">
            <path style="fill:#AFC62A;" d="M144.8,217.7c0,0-3.7,6.4,2,9.3c5.7,3,19,3.2,12.6,10.7c-6.4,7.6-8,1.6-8,1.6
	s5.6,11.3-8,9.9c-13.6-1.4-9.8-10.5-9.8-10.5l2-9.6l-1.9-9.3"></path>
            <g>
              <path style="fill:#B4D62B;" d="M99.4,218.7c0,0,5,7.5,0,10.9c-5,3.3-14.9,6.7-7.1,11.6c7.8,5,8.2,0,8.2,0s-3.2,10,9.8,6.7
		c13.1-3.3,7.3-10,7.3-10l-7.2-8.3v-10.9"></path>
            </g>
            <g>
              <path style="fill:#3F3F3F;" d="M218,120.6c0,0,14.3-1.3,2,8.4C218.3,130.3,218,120.6,218,120.6z"></path>
              <path style="fill:#3F3F3F;" d="M212,112.9c0,0,12.1-7.3,5.3,6.8L212,112.9z"></path>
              <path style="fill:#3F3F3F;" d="M202.1,113.9c0,0-1.4-14,8.4-1.9L202.1,113.9z"></path>
              <path style="fill:#B4D62B;" d="M159,161.3c16.7,11.4,84.4-23.2,53.9-47.6c-11.9-9.5-18.3,14.6-20.2,20.9
		c-5.2,17.1-26,27.2-35.2,20.8C148.4,148.9,157.2,160,159,161.3z"></path>
              <path style="fill:#A9BF2B;" d="M213.6,136.6c-0.6,1.7-2.1,2.7-3.2,2.3c-1.1-0.4-1.5-2.1-0.8-3.8c0.6-1.7,2.1-2.7,3.2-2.3
		C213.9,133.2,214.3,134.9,213.6,136.6z"></path>
              <path style="fill:#A9BF2B;" d="M203.7,139.7c-0.3,0.7-0.9,1.1-1.3,0.9c-0.5-0.2-0.6-0.9-0.3-1.6c0.3-0.7,0.9-1.1,1.3-0.9
		C203.8,138.3,204,139,203.7,139.7z"></path>
            </g>
            <g>
              <path style="fill:#3F3F3F;" d="M26,141.3c0,0-17.4-1.8-0.5-10.4C27.9,129.7,26,141.3,26,141.3z"></path>
              <path style="fill:#3F3F3F;" d="M24.9,130.9c0,0-12-12.2,6.5-8.2L24.9,130.9z"></path>
              <path style="fill:#3F3F3F;" d="M31.2,122.3c0,0,1.2-17.1,10.4-0.6L31.2,122.3z"></path>
              <path style="fill:#B4D62B;" d="M89.9,161.7c0,0-81.7-7.2-63.3-34.1c14.3-21,23.5,4.6,28.1,11.2c5.9,8.3,36.2,24.9,46,15.6
		C110.6,145,89.9,161.7,89.9,161.7z"></path>
              <path style="fill:#A9BF2B;" d="M52.3,150.3c-1-0.7-2.1-0.7-2.5,0c-0.4,0.6,0,1.7,1,2.3c1,0.7,2.1,0.7,2.5,0
		C53.7,152,53.2,150.9,52.3,150.3z"></path>
              <path style="fill:#A9BF2B;" d="M42.3,141.2c-1.8-1.2-4-1.3-4.8-0.1c-0.8,1.2,0,3.2,1.8,4.4c1.8,1.2,4,1.3,4.8,0.1
		C44.9,144.4,44.1,142.4,42.3,141.2z"></path>
              <path style="fill:#A9BF2B;" d="M40.5,149.2c0.6-0.8,2-0.8,3.3,0.1c1.2,0.8,1.8,2.2,1.3,3c-0.1,0.1-0.2,0.2-0.3,0.3
		c-1.4-0.5-2.8-1-4.1-1.5C40.2,150.4,40.2,149.7,40.5,149.2z"></path>
            </g>
            <g>
              <g id="角2_1_">
                <path style="fill:#EAE4C7;" d="M65,65.4c0,0-49-53.3,17.2-22.4L65,65.4z"></path>
                <path style="fill:#D8D2BA;" d="M62.8,35.1c0,0,20.7,13.7,13.5,23.1c-4.5,5.9,10.1-10.7,6.9-13.7C79.3,40.6,62.8,35.1,62.8,35.1z"></path>
              </g>
              <g>
                <path style="fill:#EAE4C7;" d="M172.3,44.2c0,0,63-34.2,17.3,21.9L172.3,44.2z"></path>
                <path style="fill:#D8D2BA;" d="M205.2,42.3c0,0-24.5,24.8-31.1,14.9c-4.1-6.2,3.1,11.2,7.4,11.8C192.3,70.7,205.2,42.3,205.2,42.3
			z"></path>
              </g>
              <g>
                <path style="fill:#B4D62B;" d="M84.2,144.8c-28.6-5-31.6-40.2-29.6-55.1c5.6-42.6,27.7-62.6,79.1-62.6c43.2,0,61.9,37.1,61.9,64.4
			c0,34.3-12.5,52-32.9,53.8c0,0,13.5,50.2-2.3,66.8s-63.2,19.1-78.2-10c-3.6-7.1-5.4-14.1-6-20.7C74.5,160.9,84.2,144.8,84.2,144.8
			z"></path>
                <path style="opacity:0.5;fill:#ABC12B;" d="M191.8,69.1c0,0,16.6,67-47.9,76c0,0,25.9,40.7,4,74.2c0,0,33.7-4.2,14.6-74.5
			c0,0,34.9,1.6,33.1-56.3C195.5,82.8,193.1,76.1,191.8,69.1z"></path>
                <path style="fill:#A9BF2B;" d="M152.7,200.7c0,5.1-4.8,8.3-8.1,8.3s-6.1-4.1-6.1-9.2c0-5.1,2.7-9.2,6.1-9.2
			S152.7,195.6,152.7,200.7z"></path>
                <path style="fill:#A9BF2B;" d="M155,175.2c0,4.4-3.9,8.2-5.8,8.2c-2,0-3.6-3.5-3.6-7.9s1.6-7.9,3.6-7.9
			C151.1,167.6,155,170.9,155,175.2z"></path>
                <path style="fill:#A9BF2B;" d="M161.9,188.8c0,3-3.4,5.4-4.7,5.4c-1.3,0-2.3-2.4-2.3-5.4c0-3,1-5.4,2.3-5.4
			C158.5,183.4,161.9,185.8,161.9,188.8z"></path>
              </g>
              <g>
                <path style="fill:#EAE4C7;" d="M111,32.5c-0.6-2.1,11.6-69,30.9-2.4c0,0,0,4.8-14.4,6.7C118.7,38,111.5,34.6,111,32.5z"></path>
                <path style="fill:#D8D2BA;" d="M128.6,36.6c0,0,13.2-1,13.2-6.5c0-11-11.6-26.4-11.6-26.4c0-0.1,12.5,28.1-5.4,33.3L128.6,36.6z"></path>
              </g>
            </g>
            <g>
              <g>
                <path style="fill:#BA5A73;" d="M88.9,92.4c0,0,30.6,22.3,68.3,0c16.2-9.6,15.8,8,12.9,14.2c-5.9,12.4-14.6,26.4-36.7,28.7
			c-16.3,1.7-34-4.4-42.7-14C72.2,101,81.9,88.2,88.9,92.4z"></path>
                <path style="fill:#FFFFFF;" d="M165.3,93.6c-1.7-2.2-3.5-2.8-4.6-3c-1.1,0.4-2.3,1-3.6,1.8c-30.2,17.8-55.8,7.1-64.8,2.1
			c-0.1,0-0.2-0.1-0.3-0.1c0,0-7.8,8.8-4.7,11.7c3,2.9,4.5-3.3,4.5-3.3s-0.2,3.3,0.3,4.1c0.5,0.8,2.5,1.3,2.5-2.4
			c0,0,41.7,16.3,60-3.1c0,0,0.5-0.3,1.9,1.8c1.4,2.1,3.9,3.6,3.5-2.2c0,0,0.7-4.2,2.9,0C165.1,105.3,171,100.6,165.3,93.6z"></path>
                <path style="fill:#F792B7;" d="M105.7,131.3c4.7-5.6,34.3-13.6,46-1.9c0,0-6.6,5.3-21.6,6.2C115.1,136.4,105.7,131.3,105.7,131.3z
			"></path>
              </g>
              <g>
                <path style="fill:#A3B72A;" d="M175.9,76.5c0,11.6-8.4,6.2-18.9,6.2c-10.6,0-19.3,5.4-19.3-6.2c0-11.6,8.6-21,19.1-21
			C167.3,55.5,175.9,64.9,175.9,76.5z"></path>
                <path style="fill:#FFFFFF;" d="M175.9,74.8c0,10.6-7.8,4.4-18.4,4.4c-10.6,0-19.9,6.2-19.9-4.4c0-10.6,8.6-19.1,19.1-19.1
			C167.3,55.6,175.9,64.2,175.9,74.8z"></path>
                <g>
                  <path style="fill:#424141;" d="M156.3,68.7c3.4,0.2,6.4-2.3,6.7-5.6c0.3-3.3-2.2-6.2-5.5-6.4c-3.4-0.2-6.4,2.3-6.7,5.6
				C150.4,65.6,152.9,68.5,156.3,68.7z"></path>
                  <path style="fill:#FFFFFF;" d="M152.9,65.5c0.8,0.1,1.4-0.5,1.5-1.3c0.1-0.8-0.5-1.4-1.2-1.5c-0.8-0.1-1.4,0.5-1.5,1.3
				C151.6,64.8,152.2,65.4,152.9,65.5z"></path>
                </g>
              </g>
              <g>
                <path style="fill:#A3B72A;" d="M117.2,76.5c0,11.6-8.4,6.2-18.9,6.2c-10.6,0-19.3,5.4-19.3-6.2c0-11.6,8.6-21,19.1-21
			C108.6,55.5,117.2,64.9,117.2,76.5z"></path>
                <path style="fill:#FFFFFF;" d="M117.2,74.8c0,10.6-7.8,4.4-18.4,4.4c-10.6,0-19.9,6.2-19.9-4.4c0-10.6,8.6-19.1,19.1-19.1
			C108.6,55.6,117.2,64.2,117.2,74.8z"></path>
                <g>
                  <path style="fill:#424141;" d="M97.5,68.7c3.4,0.2,6.4-2.3,6.7-5.6c0.3-3.3-2.2-6.2-5.5-6.4c-3.4-0.2-6.4,2.3-6.7,5.6
				C91.7,65.6,94.2,68.5,97.5,68.7z"></path>
                  <path style="fill:#FFFFFF;" d="M94.2,65.5c0.8,0.1,1.4-0.5,1.5-1.3c0.1-0.8-0.5-1.4-1.2-1.5C93.7,62.7,93,63.3,93,64
				C92.9,64.8,93.5,65.4,94.2,65.5z"></path>
                </g>
              </g>
            </g>
          </svg>