<svg viewBox="0 0 249.6 251.4">
            <path style="fill:#FFD731;" d="M116.2,174.4c0,0-16.9,29.7-13.1,35.9c0,0,17,1.2,13.1,8.6c-2.9,5.3-9.6,0-9.6,0s3.1,8.3-7.7,7.1
         s-6.6-4.6-4.7-6.4c1.8-1.8-7.6,5.5-11.9,0.6c-4.4-4.9,0.9-6.1,0.9-6.1l10.4-4.3l8.6-35.2"></path>
            <path style="fill:#CEB034;" d="M146.9,177.9c0,0,16.9,29.7,13.1,35.9c0,0-17,1.2-13.1,8.6c2.9,5.3,9.6,0,9.6,0s-3.1,8.3,7.7,7.1
         c10.9-1.2,6.6-4.6,4.7-6.4c-1.8-1.8,7.6,5.5,11.9,0.6c4.4-4.9-0.9-6.1-0.9-6.1l-10.4-4.3l-8.6-35.2"></path>
            <path style="fill:#FFD731;" d="M206.7,142.9c0,0,21.4,1.2,23.9-11.7c2.5-12.9-2-24.5-2-24.5s-5.2,1.5-9.6-3.9
         c-4.4-5.4,5.1-9.8,9.6-6.7c0,0-6-8,2-8.9c8-0.9,8.2,8.9,8.2,8.9s2.3-11,6.9-6.1c4.6,4.9,2.3,8.7,0.3,10.2c-1.6,1.2-7.2,3.4-7.2,3.4
         s15.4,47.8-30.4,47.1"></path>
            <path style="fill:#FFD731;" d="M61.8,142c0,0-17.8,12-26.5,2.2c-8.7-9.8-10.8-22.1-10.8-22.1
         s5.3-1.4,6.3-8.2c1-6.8-9.4-5.8-11.7-0.8c0,0,1.1-10-6.2-6.6c-7.3,3.3-2.5,11.8-2.5,11.8s-7.6-8.3-9.1-1.7c-1.5,6.6,2.4,8.6,5,9
         c2,0.3,8-0.8,8-0.8s10.2,49.5,49.3,25.6"></path>
            <g>
              <path style="fill:#FFD731;" d="M209.4,145c0,34-34.8,42.2-77.7,42.2c-42.9,0-77.7-8.2-77.7-42.2s34.8-61.5,77.7-61.5
           C174.6,83.5,209.4,111,209.4,145z"></path>
              <path style="fill:#EABD00;" d="M202.2,119.1c0,0-1.6,22.4-21.7,37.7c-30.1,23-77.3,28.8-77.3,28.8l14.4,1c0,0,46.1,4.1,73.3-9.9
           C222.1,160.5,204.8,122.4,202.2,119.1z"></path>
              <path style="fill:#D6AD00;" d="M197.4,125.3c0,4.9-4.9,6-8.6,6c-3.7,0-6.7-4-6.7-8.8c0-4.9,3-8.8,6.7-8.8
           C192.5,113.5,197.4,120.4,197.4,125.3z"></path>
              <path style="fill:#D6AD00;" d="M206.7,139.3c0,3.2-4.8,3.3-6.9,3.3c-2.1,0-3.8-2.6-3.8-5.8c0-3.2,1.7-5.8,3.8-5.8
           C201.9,131.1,206.7,136.1,206.7,139.3z"></path>
              <path style="fill:#D6AD00;" d="M197.7,148.4c0,2.1-4.1,2.4-5.2,2.4c-1.1,0-2-1.7-2-3.8c0-2.1,0.9-3.8,2-3.8
           C193.6,143.1,197.7,146.3,197.7,148.4z"></path>
            </g>
            <g>
              <g>
                <path style="fill:#BA5A73;" d="M183.7,125.7c-2.2,9.3-19.5,27.4-51.8,33.9c-30,6.1-43.4-4-51.5-9c-12.3-7.5-11.9-30.6,8.2-21.2
             c22.6,10.6,41.2-2.9,62.3-12.6C171.3,107.5,189.6,100.1,183.7,125.7z"></path>
                <path style="fill:#E27194;" d="M161.8,146.7c0.4,6.6-18.8,35.1-22,43.3c-6.5,16.4,1.5,40.1-26.3,46.2c-10.9,2.4-33-1.1-36.1-24.6
             c-1.7-13.1,4.5-32.4,13.7-52.9C99.6,139.9,160.9,133.5,161.8,146.7z"></path>
                <path style="fill:none;stroke:#BA5A73;stroke-width:13;stroke-linecap:round;stroke-miterlimit:10;" d="M131.7,138.1
             c-19.8,10.3-28.8,35.6-31.4,69.4"></path>
              </g>
              <g>
                <path style="fill:#FFD731;" d="M151.4,52.7c-8-3.2-12.4-11.1-9.8-17.7c2.6-6.5,11.3-9.2,19.3-5.9c8,3.2,12.4,11.1,9.8,17.7
             c-1.9,4.7-6.8,7.4-12.4,7.3l-9.7,37.2c0,0-2.8,4.8-6.7-2.3L151.4,52.7z"></path>
                <path style="fill:#D6AD00;" d="M167.7,45.6c-1.6,4.4-7.6,6.3-13.3,4.1c-5.7-2.1-9.1-7.4-7.4-11.8c1.6-4.4,7.6-6.3,13.3-4.1
             C166,36,169.4,41.2,167.7,45.6z"></path>
                <path style="fill:#FFFFFF;" d="M167.2,44.3c-1.6,4.4-7.6,6.3-13.3,4.1c-5.7-2.1-9.1-7.4-7.4-11.8c1.6-4.4,7.6-6.3,13.3-4.1
             C165.5,34.6,168.8,39.9,167.2,44.3z"></path>
                <g>
                  <path style="fill:#424141;" d="M155.1,42.3c-2.5-1-3.7-3.8-2.7-6.2c1-2.5,3.8-3.7,6.2-2.7c2.5,1,3.7,3.8,2.7,6.2
               C160.3,42.1,157.5,43.3,155.1,42.3z"></path>
                  <path style="fill:#FFFFFF;" d="M159,40.8c-0.3-0.1-0.4-0.5-0.3-0.8c0.1-0.3,0.5-0.4,0.8-0.3c0.3,0.1,0.4,0.5,0.3,0.8
               C159.6,40.8,159.3,41,159,40.8z"></path>
                </g>
              </g>
              <g>
                <path style="fill:#FFD731;" d="M115.5,51.7c-8.6-0.3-15.4-6.3-15.2-13.3c0.3-7,7.5-12.5,16.1-12.1c8.6,0.3,15.4,6.3,15.2,13.3
             c-0.2,5-3.9,9.2-9.2,11.1l3.5,38.3c0,0-1,5.4-7,0.1L115.5,51.7z"></path>
                <path style="fill:#D6AD00;" d="M118.3,49.1c-5.6,0.4-10.3-3.1-10.7-7.9c-0.4-4.8,3.9-8.9,9.4-9.4c5.6-0.4,10.3,3.1,10.7,7.9
             C128.1,44.5,123.9,48.7,118.3,49.1z"></path>
                <path style="fill:#FFFFFF;" d="M127,39.1c0,4.7-5,8.5-11.1,8.5c-6.1,0-11.1-3.8-11.1-8.5c0-4.7,5-8.5,11.1-8.5
             C122.1,30.6,127,34.4,127,39.1z"></path>
                <g>
                  <path style="fill:#424141;" d="M111.2,36.2c0.5-2.6,3-4.3,5.6-3.9c2.6,0.5,4.3,3,3.9,5.6c-0.5,2.6-3,4.3-5.6,3.9
               C112.4,41.3,110.7,38.8,111.2,36.2z"></path>
                  <path style="fill:#FFFFFF;" d="M113.4,39.8c0.1-0.3,0.4-0.5,0.7-0.5c0.3,0.1,0.5,0.4,0.5,0.7c-0.1,0.3-0.4,0.5-0.7,0.5
               C113.5,40.4,113.3,40.1,113.4,39.8z"></path>
                </g>
              </g>
              <g>
                <path style="fill:#FFD731;" d="M82.9,60.5c-8.2,2.8-16.7-0.3-18.9-7c-2.3-6.7,2.5-14.3,10.7-17.1c8.2-2.8,16.7,0.3,18.9,7
             c1.6,4.8-0.3,10-4.6,13.7l17,34.5c0,0,1,5.4-6.5,2.7L82.9,60.5z"></path>
                <path style="fill:#D6AD00;" d="M76.7,58.6c-5.6-0.8-9.5-5.3-8.9-10c0.7-4.7,5.7-7.9,11.3-7.1c5.6,0.8,9.5,5.3,8.9,10
             C87.4,56.3,82.3,59.4,76.7,58.6z"></path>
                <path style="fill:#FFFFFF;" d="M88.9,43.8c1.9,4.3-1.2,9.8-6.8,12.2c-5.6,2.4-11.7,0.9-13.5-3.4c-1.9-4.3,1.2-9.8,6.8-12.2
             C80.9,37.9,87,39.5,88.9,43.8z"></path>
                <g>
                  <path style="fill:#424141;" d="M77.8,41.8c2.1-1.5,5.1-1.1,6.7,1.1c1.5,2.1,1.1,5.1-1.1,6.7c-2.1,1.5-5.1,1.1-6.7-1.1
               C75.2,46.4,75.6,43.4,77.8,41.8z"></path>
                  <path style="fill:#FFFFFF;" d="M76.9,45.9c0.3-0.2,0.6-0.1,0.8,0.1c0.2,0.3,0.1,0.6-0.1,0.8C77.3,47,77,47,76.8,46.7
               C76.6,46.4,76.7,46.1,76.9,45.9z"></path>
                </g>
              </g>
            </g>
          </svg>