<svg viewBox="0 0 249.6 251.4">
            <path style="fill:#ED70A8;" d="M238.5,109.7c0,0-6.5-15.1-13.3-6.9c-2.2,2.6-3,4.5-3.2,6c-1.7-3-4.6-6.3-8.4-3.5
	c-4.2,3-7,7.3-5.4,10.4c-1.8-0.5-3.7-0.5-5.5,0.6c-5.1,3.2-4.3,11.3,5.2,13.9c0,0-12.3,13-22,7.5l-0.8,10.5
	C196.7,147.5,246.5,136.6,238.5,109.7z"></path>
            <path style="fill:#ED70A8;" d="M46.7,145c9.5-2.5,10.3-10.6,5.3-13.8c-1.7-1.1-3.7-1.1-5.5-0.6
	c1.6-3.1-1.2-7.4-5.4-10.4c-3.8-2.8-6.8,0.5-8.5,3.5c-0.2-1.5-1-3.4-3.2-6c-6.8-8.2-13.4,6.8-13.4,6.8
	c-8.3,26.8,29.5,40.2,52.4,37.2l0.2-8.9C58.9,158.1,46.7,145,46.7,145z"></path>
            <g>
              <path style="fill:#DD66A2;" d="M199.2,220.5c0,0,16.1,1.2,8.5,12.5c-6.6,9.8-14,0.6-14,0.6s11.5,7.5-2.9,10
		c-14.4,2.5-9.9-12.1-9.9-12.1"></path>
              <path style="fill:#ED70A8;" d="M71.1,239.4c0,0,3.7,14.9-10.6,11.6c-14.3-3.3-2.4-10.2-2.4-10.2s-2.6,10.4-12.4,3.7
		c-9.8-6.7,6.7-15.3,6.7-15.3"></path>
              <g>
                <g>
                  <path style="fill:#EAE4C7;" d="M174.8,70.8c55.1-4.9-8.3-70.8-8.3-70.8c26.9,63.6-8.3,44.1-8.3,44.1"></path>
                  <path style="fill:#D8D1B6;" d="M171.6,12.9c0,0,21.1,41.9,4.1,46.3l-6.4-11.6C169.3,47.5,184.8,47.5,171.6,12.9z"></path>
                </g>
                <g>
                  <g>
                    <path style="fill:#ED70A8;" d="M52.1,147.4c14.3-17.3,4.1-44.5,3.5-59.3c-1-23.5,11-63,70.3-62.7c49.5,0.2,60.7,55.2,69.5,93.8
					c0,0,21.2,46.9,8.9,88.8S72.9,254.3,48.9,231C24.9,207.6,26.2,178.7,52.1,147.4z"></path>
                    <path style="fill:#DD66A2;" d="M114.5,245c0,0,82.8-0.3,92.2-38.8c10-40.8-9-81.9-9-81.9S218.6,228.8,114.5,245z"></path>
                  </g>
                  <path style="fill:#D8669F;" d="M78.1,208.2c1.2,4.5-4.1,9.8-11.8,11.8c-7.7,2-14.9-0.1-16-4.6c-1.2-4.5,1.9-13.6,9.6-15.6
				C67.6,197.8,77,203.7,78.1,208.2z"></path>
                  <path style="fill:#D8669F;" d="M84.4,191.1c0.5,2.5-3.3,5.5-8.7,6.6c-5.3,1.1-10.1-0.1-10.6-2.6c-0.5-2.5,4.3-8.3,9.6-9.4
				C80.1,184.6,83.8,188.5,84.4,191.1z"></path>
                  <path style="fill:#D8669F;" d="M95.4,221c1.4,3.7-1.8,8.4-7.3,10.5c-5.4,2-6.9,1.2-8.3-2.5c-1.4-3.7-2.2-9,3.2-11
				C88.5,215.9,94,217.3,95.4,221z"></path>
                </g>
                <path style="fill:#EAE4C7;" d="M58.5,80.9C3.2,82.5,73.7,11.3,73.7,11.3c-33,60.7,4,44.7,4,44.7S82.4,80.2,58.5,80.9z
			"></path>
              </g>
              <g>
                <g>
                  <path style="fill:#9E4963;" d="M98.4,141.4c-0.1,1.5-0.3,2.8-0.3,4.1c14.4-9.7,45.3-15.1,64.5-6.3c-0.7-2.6-0.3-4.4,2.7-4.3
				c5,0.3,8.3,2,9.6,2.8c6.3-8.7,9.1-18,6.3-24.4c-4-9.1-9.6-8.8-17.1-5.6c1.3,2.6,4.9,10.1,1.6,10.7c-3.4,0.7-9-4.8-10.5-6.4
				c-7,3.5-15.2,7.2-24.7,7.9c-10.1,0.7-19.3-2.3-27.2-4.9c-1.7,1.9-4.5,4.8-7.9,6.4c-4.4,2.2-4.8-4.6-3.5-9.8
				c-6.5-1.2-11.4,0-14.5,8.1c-2.1,5.6,1.1,14.1,8.1,21.9C93.1,136.8,99.1,134.5,98.4,141.4z"></path>
                  <path style="fill:#FFFFFF;" d="M95.4,121.3c3.3-1.7,6.2-4.6,7.9-6.4c-4.2-1.4-8-2.8-11.4-3.4C90.7,116.7,91,123.5,95.4,121.3z"></path>
                  <path style="fill:#FFFFFF;" d="M165.7,118.3c3.3-0.6-0.2-8.1-1.6-10.7c-2.7,1.2-5.7,2.7-9,4.3C156.8,113.5,162.3,119,165.7,118.3
				z"></path>
                  <path style="fill:#F792B7;" d="M98.1,145.5c-0.2,2.8-0.3,4.8-0.4,6.1c9.6,6.1,22,10.2,35.9,9.6c12.5-0.6,24.1-6.5,32.8-14.2
				c-1.4-2.4-3.1-5.4-3.8-7.9C143.4,130.4,112.5,135.7,98.1,145.5z"></path>
                  <path style="fill:#FFFFFF;" d="M85.6,141.4c2.4,2.6,5.1,5.2,8.3,7.5c1.2,0.9,2.5,1.8,3.8,2.6c0.1-1.3,0.2-3.4,0.4-6.1
				c0.1-1.2,0.2-2.6,0.3-4.1C99.1,134.5,93.1,136.8,85.6,141.4z"></path>
                  <path style="fill:#FFFFFF;" d="M165.3,134.9c-3-0.2-3.4,1.7-2.7,4.3c0.7,2.4,2.3,5.4,3.8,7.9c1.2-1.1,2.4-2.2,3.5-3.3
				c1.9-1.9,3.6-4,5.1-6C173.7,136.8,170.4,135.2,165.3,134.9z"></path>
                </g>
              </g>
            </g>
            <g>
              <path style="fill:#CE5F9C;" d="M158.9,83.7c0,17-12.2,7.6-29.3,7.6c-17,0-32.4,9.4-32.4-7.6c0-17,13.8-30.8,30.8-30.8
		C145.1,53,158.9,66.7,158.9,83.7z"></path>
              <path style="fill:#FFFFFF;" d="M158.7,79.6c0,16.8-12,8.8-28.8,8.8c-16.8,0-31.9,7.9-31.9-8.8s13.6-30.3,30.3-30.3
		C145.1,49.3,158.7,62.9,158.7,79.6z"></path>
              <g>

                <ellipse transform="matrix(0.2331 -0.9724 0.9724 0.2331 32.2063 176.728)" style="fill:#424141;" cx="128.2" cy="67.9" rx="4.8" ry="4.8"></ellipse>
                <circle style="fill:#FFFFFF;" cx="129.5" cy="65.1" r="1.1"></circle>
              </g>
            </g>
          </svg>