<svg xmlns="http://www.w3.org/2000/svg" viewBox="0 0 979.16 826.01"><defs><style>.cls-1{fill:#bababa;}</style></defs><path class="cls-1" d="M874.78,596c0-54.49,2.23-99.66-36.8-99.66-43.11,0-36.8,45.17-36.8,99.66s-8.49,98.65,36.8,98.65C882.1,694.65,874.78,650.48,874.78,596Z"/><path class="cls-1" d="M132.48,496.34c-43.11,0-36.8,45.17-36.8,99.66s-8.49,98.65,36.8,98.65c44.12,0,36.8-44.17,36.8-98.65S171.51,496.34,132.48,496.34Z"/><path class="cls-1" d="M739.63,518.59V172.86a33.31,33.31,0,0,0-33.3-33.31H272.91a33.31,33.31,0,0,0-33.3,33.31v345c-23.2,8.51-41.57,18.64-53.87,30.38,1.64,14.14,2.09,30.4,2.09,47.71,0,9.88-.21,19.42-.73,28.43,44.5,41.4,162.48,60.14,301,60.14,132.1,0,245.5-15.29,294.35-53.18-.72-11-.94-22.92-.94-35.39,0-19.73.54-38.11,2.78-53.53C773,533.44,757.87,525.48,739.63,518.59Z"/></svg>