<svg xmlns="http://www.w3.org/2000/svg" viewBox="0 0 291 275.4">
  <path style="fill:#F2F2F2;" d="M224.5,215.2c0,47.1-35.3,52.8-78.9,52.8s-78.9-5.6-78.9-52.8c0-34.3,23.8-65,78.9-65
	C199.4,150.1,224.5,180.9,224.5,215.2z" />
  <path style="fill:#D3E3E5;" d="M202.9,165.4c0,11.7-25.5,13.1-57.1,13.1s-57.1-1.4-57.1-13.1c0-8.5,17.2-16.2,57.1-16.2
	C184.7,149.1,202.9,156.8,202.9,165.4z" />
  <path style="fill:none;stroke:#D1D1D1;stroke-width:1.0512;stroke-linecap:round;stroke-linejoin:round;stroke-miterlimit:10;" d="
	M130,190.9" />
  <path style="fill:none;stroke:#D1D1D1;stroke-width:1.0512;stroke-linecap:round;stroke-linejoin:round;stroke-miterlimit:10;" d="
	M157,190.9" />
  <g id="hand-right">
    <g>
      <path style="fill:#F2F2F2;" d="M62,195.7c-7.2,17.8-13.6,34.9-38.4,29.1c-17.5-4.1-14.2-20.4-0.1-46.1c9.3-17.1,21.3-22.9,32.9-16
			S70.2,175.6,62,195.7z" />
      <g>
        <clipPath id="SVGID_2_">
          <path id="SVGID_21_" d="M62,195.7c-7.2,17.8-13.6,34.9-38.4,29.1c-17.5-4.1-14.2-20.4-0.1-46.1c9.3-17.1,21.3-22.9,32.9-16
					S70.2,175.6,62,195.7z" />
        </clipPath>
      </g>
      <path style="fill:#D1D1D1;" d="M33.3,186.5c-0.1,0-0.1,0-0.2,0l-10.7-3.9c-0.3-0.1-0.4-0.4-0.3-0.7s0.4-0.4,0.7-0.3l10.7,3.9
			c0.3,0.1,0.4,0.4,0.3,0.7C33.7,186.4,33.5,186.5,33.3,186.5z" />
    </g>
    <path style="fill:#A9E0ED;" d="M55,211.1c3.1-6.7-12.9-6.7-17.7,1.5s5.6,11.4,5.6,11.4S50.6,220.3,55,211.1z" />
  </g>
  <g id="hand-left">
    <g>
      <path style="fill:#F2F2F2;" d="M228.5,195.7c7.2,17.8,13.6,34.9,38.4,29.1c17.5-4.1,14.2-20.4,0.1-46.1
			c-9.3-17.1-21.3-22.9-32.9-16S220.4,175.6,228.5,195.7z" />
      <g>
        <clipPath id="SVGID_3_">
          <path id="SVGID_1_" d="M228.5,195.7c7.2,17.8,13.6,34.9,38.4,29.1c17.5-4.1,14.2-20.4,0.1-46.1c-9.3-17.1-21.3-22.9-32.9-16
					S220.4,175.6,228.5,195.7z" />
        </clipPath>
      </g>
      <path style="fill:#D1D1D1;" d="M257.2,186.5c0.1,0,0.1,0,0.2,0l10.7-3.9c0.3-0.1,0.4-0.4,0.3-0.7s-0.4-0.4-0.7-0.3l-10.7,3.9
			c-0.3,0.1-0.4,0.4-0.3,0.7C256.8,186.4,257,186.5,257.2,186.5z" />
    </g>
    <path style="fill:#A9E0ED;" d="M235.6,211.1c-3.1-6.7,12.9-6.7,17.7,1.5c4.8,8.1-5.6,11.4-5.6,11.4S239.9,220.3,235.6,211.1z" />
  </g>
  <path style="fill:none;stroke:#D1D1D1;stroke-width:1.1194;stroke-linecap:round;stroke-linejoin:round;stroke-miterlimit:10;" d="
	M72.6,177.6" />
  <g>
    <path style="fill:#D1D1D1;" d="M145.6,199.9c-7.5,0-13.7-5.9-14-13.4c0-0.3,0.2-0.5,0.5-0.5c0.3,0,0.5,0.2,0.5,0.5
		c0.3,7,6,12.4,13,12.4s12.7-5.5,13-12.4c0-0.3,0.2-0.5,0.5-0.5c0.3,0,0.5,0.3,0.5,0.5C159.3,194,153.1,199.9,145.6,199.9z" />
    <circle style="opacity:0.6;fill:#00B5E2;" cx="145.6" cy="185.9" r="5" />
    <path style="fill:#D1D1D1;" d="M132.1,186.7C132.1,186.7,132.1,186.7,132.1,186.7c-7.6-0.7-14.8-1.9-20.7-3.6
		c-0.3-0.1-0.4-0.4-0.4-0.7c0.1-0.3,0.4-0.4,0.7-0.4c5.9,1.7,12.9,2.9,20.5,3.6c0.3,0,0.5,0.3,0.5,0.6
		C132.6,186.5,132.4,186.7,132.1,186.7z" />
    <path style="fill:#D1D1D1;" d="M159.1,186.7c-0.3,0-0.5-0.2-0.5-0.5c0-0.3,0.2-0.5,0.5-0.6c7.5-0.7,14.6-1.9,20.5-3.6
		c0.3-0.1,0.6,0.1,0.7,0.4s-0.1,0.6-0.4,0.7C173.8,184.8,166.7,186.1,159.1,186.7C159.1,186.7,159.1,186.7,159.1,186.7z" />
  </g>
  <path style="fill:#F2F2F2;" d="M197.3,152.1" />
  <g>
    <path style="fill:#F2F2F2;" d="M255.5,91.9c0,66.8-49.2,82.9-109.9,82.9S35.7,158.7,35.7,91.9S84.9,7.4,145.6,7.4
		S255.5,25.2,255.5,91.9z" />
  </g>
  <path style="fill:#2B2B2B;" d="M250.3,91.9c0,63.6-46.9,78.9-104.6,78.9S41,155.4,41,91.9s46.9-80.5,104.6-80.5
	S250.3,28.3,250.3,91.9z" />
  <path style="fill:#2B2B2B;" d="M232.3,91.8c0,52.7-38.8,65.4-86.7,65.4s-86.7-12.7-86.7-65.4s38.8-66.7,86.7-66.7
	S232.3,39.1,232.3,91.8z" />
  <g>
    <path style="fill:#F2F2F2;" d="M252.8,85.6c0,0-15.5-4.5-29.8,15c-12.1,16.5-7.9,59.1-7.9,59.1S256.1,151.6,252.8,85.6z" />
    <path style="fill:#F2F2F2;" d="M38.4,85.6c0,0,15.5-4.5,29.8,15c12.1,16.5,7.9,59.1,7.9,59.1S35.1,151.6,38.4,85.6z" />
  </g>
  <g>
    <g>
      <path id="XMLID_44_" style="fill:#00B5E2;" d="M113.8,103.7L113.8,103.7c-7.4,0-13.4-6-13.4-13.4V80c0-7.4,6-13.4,13.4-13.4h0
			c7.4,0,13.4,6,13.4,13.4v10.3C127.2,97.7,121.2,103.7,113.8,103.7z" />
      <path id="XMLID_40_" style="fill:#00B5E2;" d="M177.4,103.7L177.4,103.7c-7.4,0-13.4-6-13.4-13.4V80c0-7.4,6-13.4,13.4-13.4h0
			c7.4,0,13.4,6,13.4,13.4v10.3C190.8,97.7,184.8,103.7,177.4,103.7z" />
    </g>
    <path style="fill:#00B5E2;" d="M143.7,122.7c-4.4,0-7.5-0.7-7.8-0.7c-2-0.4-3.2-2.4-2.8-4.4c0.4-2,2.4-3.2,4.4-2.8l0,0
		c0.2,0,15.3,3.1,23.9-5.9c1.4-1.5,3.7-1.5,5.2-0.1c1.5,1.4,1.5,3.7,0.1,5.2C159.7,121.2,150.3,122.7,143.7,122.7z" />
  </g>
</svg>