<svg xmlns="http://www.w3.org/2000/svg" viewBox="0 0 291 275.4">
  <path style="fill:#F2F2F2;" d="M224.5,215.2c0,47.1-35.3,52.8-78.9,52.8s-78.9-5.6-78.9-52.8c0-34.3,23.8-65,78.9-65
	C199.4,150.1,224.5,180.9,224.5,215.2z" />
  <path style="fill:#D3E3E5;" d="M202.9,165.4c0,11.7-25.5,13.1-57.1,13.1s-57.1-1.4-57.1-13.1c0-8.5,17.2-16.2,57.1-16.2
	C184.7,149.1,202.9,156.8,202.9,165.4z" />
  <path style="fill:none;stroke:#D1D1D1;stroke-width:1.0512;stroke-linecap:round;stroke-linejoin:round;stroke-miterlimit:10;" d="
	M130,190.9" />
  <path style="fill:none;stroke:#D1D1D1;stroke-width:1.0512;stroke-linecap:round;stroke-linejoin:round;stroke-miterlimit:10;" d="
	M157,190.9" />
  <g id="hand-right">
    <g>
      <path style="fill:#F2F2F2;" d="M62,195.7c-7.2,17.8-13.6,34.9-38.4,29.1c-17.5-4.1-14.2-20.4-0.1-46.1c9.3-17.1,21.3-22.9,32.9-16
			S70.2,175.6,62,195.7z" />
      <g>
        <clipPath id="SVGID_2_">
          <path id="SVGID_21_" d="M62,195.7c-7.2,17.8-13.6,34.9-38.4,29.1c-17.5-4.1-14.2-20.4-0.1-46.1c9.3-17.1,21.3-22.9,32.9-16
					S70.2,175.6,62,195.7z" />
        </clipPath>
      </g>
      <path style="fill:#D1D1D1;" d="M33.3,186.5c-0.1,0-0.1,0-0.2,0l-10.7-3.9c-0.3-0.1-0.4-0.4-0.3-0.7s0.4-0.4,0.7-0.3l10.7,3.9
			c0.3,0.1,0.4,0.4,0.3,0.7C33.7,186.4,33.5,186.5,33.3,186.5z" />
    </g>
    <path style="fill:#A9E0ED;" d="M55,211.1c3.1-6.7-12.9-6.7-17.7,1.5s5.6,11.4,5.6,11.4S50.6,220.3,55,211.1z" />
  </g>
  <g id="hand-left">
    <g>
      <path style="fill:#F2F2F2;" d="M228.5,195.7c7.2,17.8,13.6,34.9,38.4,29.1c17.5-4.1,14.2-20.4,0.1-46.1
			c-9.3-17.1-21.3-22.9-32.9-16S220.4,175.6,228.5,195.7z" />
      <g>
        <clipPath id="SVGID_3_">
          <path id="SVGID_1_" d="M228.5,195.7c7.2,17.8,13.6,34.9,38.4,29.1c17.5-4.1,14.2-20.4,0.1-46.1c-9.3-17.1-21.3-22.9-32.9-16
					S220.4,175.6,228.5,195.7z" />
        </clipPath>
      </g>
      <path style="fill:#D1D1D1;" d="M257.2,186.5c0.1,0,0.1,0,0.2,0l10.7-3.9c0.3-0.1,0.4-0.4,0.3-0.7s-0.4-0.4-0.7-0.3l-10.7,3.9
			c-0.3,0.1-0.4,0.4-0.3,0.7C256.8,186.4,257,186.5,257.2,186.5z" />
    </g>
    <path style="fill:#A9E0ED;" d="M235.6,211.1c-3.1-6.7,12.9-6.7,17.7,1.5c4.8,8.1-5.6,11.4-5.6,11.4S239.9,220.3,235.6,211.1z" />
  </g>
  <path style="fill:none;stroke:#D1D1D1;stroke-width:1.1194;stroke-linecap:round;stroke-linejoin:round;stroke-miterlimit:10;" d="
	M72.6,177.6" />
  <g>
    <path style="fill:#D1D1D1;" d="M145.6,199.9c-7.5,0-13.7-5.9-14-13.4c0-0.3,0.2-0.5,0.5-0.5c0.3,0,0.5,0.2,0.5,0.5
		c0.3,7,6,12.4,13,12.4s12.7-5.5,13-12.4c0-0.3,0.2-0.5,0.5-0.5c0.3,0,0.5,0.3,0.5,0.5C159.3,194,153.1,199.9,145.6,199.9z" />
    <circle style="opacity:0.6;fill:#00B5E2;" cx="145.6" cy="185.9" r="5" />
    <path style="fill:#D1D1D1;" d="M132.1,186.7C132.1,186.7,132.1,186.7,132.1,186.7c-7.6-0.7-14.8-1.9-20.7-3.6
		c-0.3-0.1-0.4-0.4-0.4-0.7c0.1-0.3,0.4-0.4,0.7-0.4c5.9,1.7,12.9,2.9,20.5,3.6c0.3,0,0.5,0.3,0.5,0.6
		C132.6,186.5,132.4,186.7,132.1,186.7z" />
    <path style="fill:#D1D1D1;" d="M159.1,186.7c-0.3,0-0.5-0.2-0.5-0.5c0-0.3,0.2-0.5,0.5-0.6c7.5-0.7,14.6-1.9,20.5-3.6
		c0.3-0.1,0.6,0.1,0.7,0.4s-0.1,0.6-0.4,0.7C173.8,184.8,166.7,186.1,159.1,186.7C159.1,186.7,159.1,186.7,159.1,186.7z" />
  </g>
  <path style="fill:#F2F2F2;" d="M197.3,152.1" />
  <g>
    <path style="fill:#F2F2F2;" d="M255.5,91.9c0,66.8-49.2,82.9-109.9,82.9S35.7,158.7,35.7,91.9S84.9,7.4,145.6,7.4
		S255.5,25.2,255.5,91.9z" />
  </g>
  <path style="fill:#2B2B2B;" d="M250.3,91.9c0,63.6-46.9,78.9-104.6,78.9S41,155.4,41,91.9s46.9-80.5,104.6-80.5
	S250.3,28.3,250.3,91.9z" />
  <path style="fill:#2B2B2B;" d="M232.3,91.8c0,52.7-38.8,65.4-86.7,65.4s-86.7-12.7-86.7-65.4s38.8-66.7,86.7-66.7
	S232.3,39.1,232.3,91.8z" />
  <g>
    <path style="fill:#F2F2F2;" d="M252.8,85.6c0,0-15.5-4.5-29.8,15c-12.1,16.5-7.9,59.1-7.9,59.1S256.1,151.6,252.8,85.6z" />
    <path style="fill:#F2F2F2;" d="M38.4,85.6c0,0,15.5-4.5,29.8,15c12.1,16.5,7.9,59.1,7.9,59.1S35.1,151.6,38.4,85.6z" />
  </g>
  <g>
    <g>
      <path style="fill:#00B5E2;" d="M122.4,79.1c-7.6,0-13.7-6.1-13.7-13.7v-7.8c0-7.6,6.1-13.7,13.7-13.7c7.6,0,13.7,6.1,13.7,13.7
                v7.8C136.1,73,130,79.1,122.4,79.1z M122.4,50.9c-3.7,0-6.7,3-6.7,6.7v7.8c0,3.7,3,6.7,6.7,6.7c3.7,0,6.7-3,6.7-6.7v-7.8
                C129.1,53.9,126.1,50.9,122.4,50.9z" />
      <path style="fill:#00B5E2;" d="M170.8,79.1c-7.6,0-13.7-6.1-13.7-13.7v-7.8c0-7.6,6.1-13.7,13.7-13.7c7.6,0,13.7,6.1,13.7,13.7
                v7.8C184.5,73,178.3,79.1,170.8,79.1z M170.8,50.9c-3.7,0-6.7,3-6.7,6.7v7.8c0,3.7,3,6.7,6.7,6.7h0c3.7,0,6.7-3,6.7-6.7v-7.8
                C177.5,53.9,174.5,50.9,170.8,50.9z" />
    </g>
    <path style="fill:#00B5E2;" d="M136.2,139.2c-3.6,0-7.4-0.8-10.9-3.5c-6.8-5.2-10.2-15.5-10.2-31.6c0-8,2-13.4,6-16.4
              c6-4.6,14.6-2.1,20.8-0.4c2.2,0.6,4.4,1.3,5.5,1.3v7c-2.1,0-4.5-0.7-7.4-1.5c-5.1-1.4-11.4-3.2-14.6-0.8c-2.7,2-3.2,7-3.2,10.9
              c0,13.4,2.6,22.4,7.4,26.1c4.6,3.5,10.8,1.7,14.5,0.7c1.5-0.4,2.4-0.7,3.4-0.7v7c0.1,0,0.1,0,0.2,0c-0.2,0-1,0.3-1.6,0.4
              C143.6,138.2,140.1,139.2,136.2,139.2z" />
    <path style="fill:#00B5E2;" d="M158.5,139.2c-3.9,0-7.5-1-9.7-1.6c-0.6-0.2-1.4-0.4-1.6-0.4c0.1,0,0.1,0,0.2,0v-7
              c0.9,0,1.9,0.3,3.4,0.7c3.7,1,9.9,2.8,14.5-0.7c4.8-3.7,7.4-12.7,7.4-26.1c0-3.8-0.6-8.8-3.2-10.9c-3.3-2.5-9.6-0.7-14.6,0.8
              c-2.9,0.8-5.4,1.5-7.4,1.5v-7c1.1,0,3.3-0.6,5.5-1.3c6.2-1.8,14.7-4.2,20.8,0.4c4.1,3.1,6,8.4,6,16.4c0,16.1-3.3,26.5-10.2,31.6
              C166,138.4,162.1,139.2,158.5,139.2z" />
  </g>
</svg>